<?xml version="1.0" encoding="UTF-8" standalone="no"?>
<!-- Created with Inkscape (http://www.inkscape.org/) -->

<svg
   xmlns:dc="http://purl.org/dc/elements/1.1/"
   xmlns:cc="http://creativecommons.org/ns#"
   xmlns:rdf="http://www.w3.org/1999/02/22-rdf-syntax-ns#"
   xmlns:svg="http://www.w3.org/2000/svg"
   xmlns="http://www.w3.org/2000/svg"
   xmlns:sodipodi="http://sodipodi.sourceforge.net/DTD/sodipodi-0.dtd"
   xmlns:inkscape="http://www.inkscape.org/namespaces/inkscape"
   width="120.17677"
   height="120.17677"
   id="svg2"
   version="1.1"
   inkscape:version="0.48.2 r9819"
   sodipodi:docname="logo.svg">
  <defs
     id="defs4" />
  <sodipodi:namedview
     id="base"
     pagecolor="#ffffff"
     bordercolor="#666666"
     borderopacity="1.0"
     inkscape:pageopacity="0.0"
     inkscape:pageshadow="2"
     inkscape:zoom="1"
     inkscape:cx="116.12854"
     inkscape:cy="26.448111"
     inkscape:document-units="px"
     inkscape:current-layer="layer1"
     showgrid="false"
     fit-margin-top="0"
     fit-margin-left="0"
     fit-margin-right="0"
     fit-margin-bottom="0"
     inkscape:window-width="786"
     inkscape:window-height="701"
     inkscape:window-x="586"
     inkscape:window-y="151"
     inkscape:window-maximized="0" />
  <metadata
     id="metadata7">
    <rdf:RDF>
      <cc:Work
         rdf:about="">
        <dc:format>image/svg+xml</dc:format>
        <dc:type
           rdf:resource="http://purl.org/dc/dcmitype/StillImage" />
        <dc:title></dc:title>
      </cc:Work>
    </rdf:RDF>
  </metadata>
  <g
     inkscape:label="Layer 1"
     inkscape:groupmode="layer"
     id="layer1"
     transform="translate(4e-7,-932.18541)">
    <path
       transform="matrix(0.90249348,0,0,0.90249348,-75.736881,485.26941)"
       d="m 206,572.86218 c 0,30.65181 -24.8482,55.5 -55.5,55.5 -30.6518,0 -55.5,-24.84819 -55.5,-55.5 0,-30.6518 24.8482,-55.5 55.5,-55.5 30.6518,0 55.5,24.8482 55.5,55.5 z"
       sodipodi:ry="55.5"
       sodipodi:rx="55.5"
       sodipodi:cy="572.86218"
       sodipodi:cx="150.5"
       id="path3767"
       style="fill:#63b132;fill-opacity:1;stroke:#535151;stroke-width:0;stroke-linecap:round;stroke-linejoin:bevel;stroke-miterlimit:4;stroke-opacity:1;stroke-dasharray:none"
       sodipodi:type="arc" />
    <path
       transform="matrix(0.90249348,0,0,0.90249348,-65.736881,465.26941)"
       d="m 206,572.86218 c 0,30.65181 -24.8482,55.5 -55.5,55.5 -30.6518,0 -55.5,-24.84819 -55.5,-55.5 0,-30.6518 24.8482,-55.5 55.5,-55.5 30.6518,0 55.5,24.8482 55.5,55.5 z"
       sodipodi:ry="55.5"
       sodipodi:rx="55.5"
       sodipodi:cy="572.86218"
       sodipodi:cx="150.5"
       id="path3765"
       style="fill:#f7bc3b;fill-opacity:1;stroke:#535151;stroke-width:0;stroke-linecap:round;stroke-linejoin:bevel;stroke-miterlimit:4;stroke-opacity:1;stroke-dasharray:none"
       sodipodi:type="arc" />
    <path
       sodipodi:type="arc"
       style="fill:#1d90b8;fill-opacity:1;stroke:#535151;stroke-width:0;stroke-linecap:round;stroke-linejoin:bevel;stroke-miterlimit:4;stroke-opacity:1;stroke-dasharray:none"
       id="path3759"
       sodipodi:cx="150.5"
       sodipodi:cy="572.86218"
       sodipodi:rx="55.5"
       sodipodi:ry="55.5"
       d="m 206,572.86218 c 0,30.65181 -24.8482,55.5 -55.5,55.5 -30.6518,0 -55.5,-24.84819 -55.5,-55.5 0,-30.6518 24.8482,-55.5 55.5,-55.5 30.6518,0 55.5,24.8482 55.5,55.5 z"
       transform="matrix(0.90249348,0,0,0.90249348,-85.736881,465.26941)" />
    <path
       style="fill:#000000;fill-opacity:1;stroke:#535151;stroke-width:0;stroke-linecap:round;stroke-linejoin:bevel;stroke-miterlimit:4;stroke-opacity:1;stroke-dasharray:none"
       d="m 54.170524,1029.9365 c -10.506858,-3.3603 -22.38701,-13.1819 -27.856753,-23.0299 -6.947874,-12.50941 -8.744648,-31.7298 -3.543968,-37.91046 6.132108,-7.28759 17.660972,-13.84195 27.961283,-15.89648 11.399116,-2.27369 24.62364,-0.0287 34.55638,5.86622 6.680281,3.96465 12.670331,9.6547 13.473824,12.799 2.8209,11.03902 0.541551,25.42857 -5.712532,36.06332 -3.788657,6.4424 -12.708899,14.8887 -19.318716,18.2924 -5.497765,2.8311 -12.195836,5.2114 -14.447253,5.1342 -0.610003,-0.021 -2.910522,-0.6142 -5.112265,-1.3183 z"
       id="path3809"
       inkscape:connector-curvature="0" />
    <flowRoot
       xml:space="preserve"
       id="flowRoot3813"
       style="font-size:40px;font-style:normal;font-variant:normal;font-weight:normal;font-stretch:normal;line-height:125%;letter-spacing:0px;word-spacing:0px;fill:#ffffff;fill-opacity:1;stroke:none;font-family:Droid Sans;-inkscape-font-specification:Droid Sans"><flowRegion
         id="flowRegion3815"><rect
           id="rect3817"
           width="49"
           height="53"
           x="37"
           y="964.36218"
           style="fill:#ffffff;fill-opacity:1" /></flowRegion><flowPara
         id="flowPara3819" /></flowRoot>    <text
       xml:space="preserve"
       style="font-size:80px;font-style:italic;font-variant:normal;font-weight:bold;font-stretch:normal;line-height:125%;letter-spacing:0px;word-spacing:0px;fill:#ffffff;fill-opacity:1;stroke:none;font-family:URW Chancery L;-inkscape-font-specification:URW Chancery L Bold Italic"
       x="32.959999"
       y="1011.5222"
       id="text3825"
       sodipodi:linespacing="125%"><tspan
         sodipodi:role="line"
         id="tspan3827"
         x="32.959999"
         y="1011.5222">C</tspan></text>
  </g>
</svg>
